<?xml version="1.0" standalone="no"?>
<svg xmlns="http://www.w3.org/2000/svg" viewBox="0 0 71.7 29" width="71.7" height="29"><path fill="#59A5D8" fill-rule="nonzero" d="M11.60 1.52L5.81 14.79Q5.71 15 5.59 15.28Q5.47 15.55 5.37 15.83Q5.27 16.10 5.20 16.35Q5.13 16.61 5.12 16.76L5.12 16.76Q5.02 16.82 4.85 16.86Q4.68 16.90 4.49 16.92Q4.30 16.95 4.11 16.96Q3.93 16.97 3.77 16.97L3.77 16.97Q3.60 16.97 3.41 16.94Q3.22 16.91 3.08 16.83Q2.93 16.76 2.84 16.62Q2.74 16.49 2.74 16.28L2.74 16.28Q2.74 16.13 2.86 15.87L2.86 15.87L9 1.55L6.32 1.57Q5.06 1.58 4.06 1.80Q3.06 2.02 2.36 2.27Q1.65 2.53 1.27 2.75Q0.89 2.96 0.89 2.98L0.89 2.98Q0.87 2.94 0.73 2.72Q0.59 2.50 0.43 2.21Q0.27 1.93 0.13 1.65Q0 1.37 0 1.23L0 1.23Q0 0.97 0.26 0.79Q0.52 0.60 0.96 0.47Q1.41 0.34 1.99 0.26Q2.57 0.18 3.22 0.13Q3.87 0.09 4.54 0.08Q5.20 0.06 5.81 0.06L5.81 0.06Q6.91 0.06 8.06 0.11Q9.21 0.15 10.37 0.22L10.37 0.22Q10.83 0.25 11.07 0.35Q11.32 0.45 11.45 0.59Q11.58 0.73 11.60 1.04L11.60 1.04L11.60 1.52ZM21.76 1.52L19.08 1.52Q17.81 1.52 16.93 1.74Q16.04 1.96 15.46 2.23L15.46 2.23Q14.78 2.53 14.33 2.93L14.33 2.93Q14.31 2.89 14.17 2.67Q14.03 2.45 13.86 2.17Q13.70 1.89 13.57 1.61Q13.44 1.32 13.44 1.18L13.44 1.18Q13.44 0.94 13.69 0.75Q13.93 0.56 14.34 0.43Q14.75 0.29 15.29 0.21Q15.83 0.13 16.42 0.08Q17.02 0.04 17.62 0.02Q18.22 0 18.76 0L18.76 0Q19.28 0 19.77 0.01Q20.26 0.02 20.77 0.05Q21.27 0.08 21.80 0.11Q22.32 0.14 22.90 0.18L22.90 0.18Q23.36 0.20 23.60 0.30Q23.85 0.41 23.96 0.58Q24.07 0.75 24.09 0.97Q24.11 1.20 24.12 1.46L24.12 1.46Q23.89 2.24 23.47 2.96Q23.04 3.69 22.52 4.34Q22.00 4.98 21.45 5.52Q20.89 6.06 20.43 6.46Q19.97 6.86 19.65 7.09Q19.34 7.32 19.29 7.35L19.29 7.35Q20.47 7.51 21.46 7.88Q22.45 8.24 23.17 8.84Q23.89 9.45 24.29 10.31Q24.69 11.17 24.69 12.32L24.69 12.32Q24.69 13.46 24.24 14.37Q23.79 15.27 23.00 15.90Q22.21 16.52 21.13 16.86Q20.06 17.19 18.81 17.19L18.81 17.19Q18.27 17.19 17.65 17.12Q17.04 17.05 16.43 16.93Q15.82 16.80 15.25 16.62Q14.68 16.44 14.25 16.21Q13.82 15.98 13.55 15.71Q13.29 15.45 13.29 15.15L13.29 15.15Q13.29 14.94 13.46 14.63L13.46 14.63L14.20 13.35Q14.75 13.72 15.35 14.13Q15.94 14.54 16.56 14.88Q17.18 15.22 17.81 15.44Q18.45 15.66 19.08 15.66L19.08 15.66Q19.84 15.66 20.45 15.37Q21.06 15.08 21.49 14.59Q21.91 14.10 22.14 13.45Q22.37 12.81 22.37 12.11L22.37 12.11Q22.37 11.14 21.90 10.48Q21.42 9.81 20.63 9.40Q19.84 8.99 18.80 8.82Q17.77 8.65 16.65 8.67L16.65 8.67L16.65 7.99Q16.65 7.80 16.69 7.69Q16.73 7.58 16.79 7.52Q16.84 7.45 16.89 7.42Q16.95 7.39 16.97 7.37L16.97 7.37Q17.74 6.93 18.54 6.22Q19.34 5.52 20.01 4.72Q20.68 3.91 21.16 3.08Q21.63 2.24 21.76 1.52L21.76 1.52Z" transform="translate(0, 5.905)"></path><line x1="33.69140625" y1="2%" x2="33.69140625" y2="98%" stroke="#59A5D8" stroke-linecap="round"></line><g fill="#133C55" color="#133C55" transform="translate(42.69140625 0) scale(0.29)"><svg width="100.0" height="100.0" x="0.0" y="0.0" viewBox="0 0 100 100"><path d="M53.5,0v46.5H100V0H53.5z M91.029,26.75H62.471v-7h28.559V26.75z"></path><path d="M0,0v46.5h46.5V0H0z M37.53,26.75H26.75v10.78h-7V26.75H8.97v-7h10.78V8.97h7v10.78h10.78V26.75z"></path><path d="M0,53.5V100h46.5V53.5H0z M32.92,91.369l-9.67-9.671l-9.671,9.671L8.63,86.42l9.671-9.671L8.632,67.08l4.95-4.949  l9.668,9.669l9.669-9.669l4.949,4.949L28.2,76.749l9.67,9.671L32.92,91.369z"></path><path d="M53.5,53.5V100H100V53.5H53.5z M91.029,86.096H62.471v-7h28.559V86.096z M91.029,74.404H62.471v-7h28.559V74.404z"></path></svg></g></svg>